<?xml version="1.0" encoding="UTF-8"?>
<svg id="Layer_1" data-name="Layer 1" xmlns="http://www.w3.org/2000/svg" version="1.1" viewBox="0 0 173 158">
  <defs>
    <style>
      .cls-1 {
        fill: #e91f4d;
        stroke-width: 0px;
      }
    </style>
  </defs>
  <path class="cls-1" d="M120.3,20.9c0-.5.2-1,.6-1.4.3-.4.8-.5,1.3-.6.5,0,1,.2,1.3.6.4.4.5.8.5,1.4,0,.5-.2,1-.5,1.3-.4.4-.8.6-1.3.6-.5,0-1-.2-1.3-.6-.4-.4-.5-.8-.6-1.3M120.7,20.9c0,.5.1.8.4,1.1.3.3.6.4,1.1.4.4,0,.8-.1,1.1-.4.3-.3.4-.6.4-1.1,0-.5-.1-.8-.4-1.1-.3-.3-.6-.4-1.1-.4-.4,0-.8.1-1.1.4-.3.3-.4.6-.4,1.1M121.4,19.7h.8c.5,0,.8.2.8.7,0,.2,0,.4-.2.5-.1,0-.2.2-.4.2l.6.9h-.4l-.6-.9h-.2v.9h-.4v-2.2ZM121.8,20.7h.3c.2,0,.3,0,.4,0,.1,0,.2-.1.2-.3,0-.1,0-.2-.2-.3,0,0-.2,0-.3,0h-.3v.6Z"/>
  <path class="cls-1" d="M105.5,100.7c-1.2.2-2.4.4-3.7.6,1.9-5.7,3.8-11.4,4.8-14.5,11.2,18.1,20.9,36.6,34.9,52.3-.3-1.9-1.1-3.6-2-5.2-9.9-17.1-19.9-34.2-29.7-51.4-1-1.7-1.4-4.3-.9-6.2,3.9-15,6.8-27.6,10.8-42.6.4-1.6,1.8-5.7,2.1-7.4.3-1.7-2.4-1.7-3.2-.1-7.4,15.4-11.2,28.2-16.7,43.5-1-1.3-1.6-2.1-2.2-3-4.9-7.1-9.7-14.3-14.6-21.4-.8-1.2-1.6-2.6-2.8-3.2-1-.5-3.1-2.1-3.9-.2-.5,1.3-.2,2.7.4,3.5,6.4,9.4,12.9,18.8,19.5,28.1,1.5,2.2,1.9,4.3,1.3,6.8-1.1,4.9-3.7,13.9-5.8,22.1-5.6.8-11.4,1.7-16,2.4-6.8,1-15.9,2.4-23.4,3.6-1.8-25.7-2.4-51.5-4.4-77.1-.4-2.9-4.6-2.6-4.6.3.2,6.8.3,13.6.4,20.4.3,20.8-.2,41.5.7,62.3.5,2.2,2.7,3.5,4.9,3,4.6-1,9.2-2,13.8-3.1,8.3-1.8,17.9-3.9,27.1-5.9-.8,3-1.4,5.7-1.8,7.7-.3,1.6-.3,3.3.2,4.8.3.9,1.6,1.9,2.6,2.1.6,0,1.8-1.1,2.2-2,.7-1.5,1.2-3.1,1.7-4.7.7-2.1,1.9-5.7,3.2-9.7,2.2-.5,4.3-1,6.4-1.4,2.9-.8,2.1-4.9-.9-4.5"/>
  <path class="cls-1" d="M77.5,93.7c2.1-1.4,3.9-3.2,5.4-5,3.4-3.9,4.1-17.4,3-21.8-.4-1.6-1-3.2-4.5-3.7-.3,1.7,0,4.2.2,5.6,2.4,21.3-12.6,21.7-13.9,19.4-.3-.6-.6-1.2-.8-1.8-.7-2.2-.7-13.5-1.1-15.7-.1-.7.2-1.6-1.3-1.8-1.6-.2-2,.8-2.4,1.5-.1.2-.2.5-.3.7-.8,4.3-.4,17.7,3.2,21.4,3.3,3.5,8.3,3.9,12.6.9"/>
</svg>