<?xml version="1.0" encoding="UTF-8"?>
<svg id="Layer_1" data-name="Layer 1" xmlns="http://www.w3.org/2000/svg" version="1.1" viewBox="0 0 57.5 52.5">
  <defs>
    <style>
      .cls-1 {
        fill: #e91f4d;
      }

      .cls-1, .cls-2 {
        stroke-width: 0px;
      }

      .cls-2 {
        fill: #fff;
      }
    </style>
  </defs>
  <circle class="cls-1" cx="28.8" cy="26.2" r="26"/>
  <g>
    <path class="cls-2" d="M37.1,10.1c0-.2,0-.3.2-.4,0-.1.2-.2.4-.2.1,0,.3,0,.4.2,0,.1.1.2.1.4,0,.2,0,.3-.1.4,0,.1-.2.2-.4.2-.1,0-.3,0-.4-.2,0,0-.2-.2-.2-.4M37.2,10.1c0,.1,0,.2.1.3,0,0,.2.1.3.1.1,0,.2,0,.3-.1,0,0,.1-.2.1-.3,0-.1,0-.2-.1-.3,0,0-.2-.1-.3-.1-.1,0-.2,0-.3.1,0,0-.1.2-.1.3M37.5,9.7h.2c.1,0,.2,0,.2.2,0,0,0,.1,0,.1,0,0,0,0-.1,0l.2.3h-.1l-.2-.3h0v.3h-.1v-.6ZM37.6,10h0s0,0,.1,0c0,0,0,0,0,0,0,0,0,0,0,0,0,0,0,0,0,0h0v.2Z"/>
    <path class="cls-2" d="M33.1,32.3c-.3,0-.7.1-1,.2.5-1.6,1-3.2,1.3-4,3.1,5,5.7,10.2,9.6,14.6,0-.5-.3-1-.5-1.4-2.7-4.8-5.5-9.5-8.1-14.3-.3-.5-.4-1.2-.2-1.7,1.1-4.2,1.9-7.7,3-11.9.1-.5.5-1.6.6-2.1,0-.5-.7-.5-.9,0-2,4.3-3.1,7.9-4.6,12.1-.3-.4-.5-.6-.6-.8-1.3-2-2.7-4-4-6-.2-.3-.4-.7-.8-.9-.3-.2-.8-.6-1.1,0-.1.4,0,.7,0,1,1.8,2.6,3.5,5.2,5.3,7.8.4.6.5,1.2.3,1.9-.3,1.4-1,3.9-1.6,6.2-1.5.2-3.1.5-4.4.7-1.9.3-4.3.7-6.4,1-.5-7.1-.7-14.3-1.2-21.5-.1-.8-1.3-.7-1.3,0,0,1.9,0,3.8.1,5.7,0,5.8,0,11.6.2,17.3.1.6.7,1,1.3.8,1.3-.3,2.5-.6,3.8-.9,2.3-.5,4.9-1.1,7.4-1.6-.2.8-.4,1.6-.5,2.1,0,.4,0,.9,0,1.3,0,.3.4.5.7.6.2,0,.5-.3.6-.6.2-.4.3-.9.5-1.3.2-.6.5-1.6.9-2.7.6-.1,1.2-.3,1.7-.4.8-.2.6-1.4-.2-1.3"/>
    <path class="cls-2" d="M25.4,30.3c.6-.4,1.1-.9,1.5-1.4.9-1.1,1.1-4.8.8-6.1-.1-.4-.3-.9-1.2-1,0,.5,0,1.2,0,1.6.7,5.9-3.4,6-3.8,5.4,0-.2-.2-.3-.2-.5-.2-.6-.2-3.8-.3-4.4,0-.2,0-.4-.4-.5-.4,0-.5.2-.7.4,0,0,0,.1,0,.2-.2,1.2-.1,4.9.9,6,.9,1,2.3,1.1,3.5.3"/>
  </g>
</svg>