<?xml version="1.0" standalone="no"?>
<!DOCTYPE svg PUBLIC "-//W3C//DTD SVG 20010904//EN"
 "http://www.w3.org/TR/2001/REC-SVG-20010904/DTD/svg10.dtd">
<svg version="1.0" xmlns="http://www.w3.org/2000/svg"
 width="736.000000pt" height="736.000000pt" viewBox="0 0 736.000000 736.000000"
 preserveAspectRatio="xMidYMid meet">
<metadata>
Created by potrace 1.14, written by Peter Selinger 2001-2017
</metadata>
<g transform="translate(0.000000,736.000000) scale(0.100000,-0.100000)"
fill="#000000" stroke="none">
<path d="M5352 7332 c-90 -81 -21 -228 95 -201 124 27 109 212 -18 226 -38 4
-48 1 -77 -25z m136 -28 c34 -39 26 -108 -17 -141 -17 -13 -91 -18 -91 -5 0 4
7 16 15 26 8 10 12 23 9 27 -3 5 -2 14 2 20 3 6 14 -2 25 -20 10 -17 26 -31
34 -31 13 0 13 3 3 20 -7 11 -17 20 -23 20 -5 0 -2 7 9 15 16 12 26 59 15 69
-9 9 -79 15 -83 7 -3 -5 -6 -38 -7 -75 -2 -67 -7 -77 -28 -52 -36 43 -13 129
39 148 28 11 75 -2 98 -28z m-40 -32 c-3 -17 -35 -25 -44 -11 -3 6 -3 16 0 24
7 19 48 7 44 -13z"/>
<path d="M5252 6970 c-19 -12 -41 -39 -55 -67 -12 -27 -26 -51 -32 -55 -5 -4
-7 -8 -3 -8 4 0 -1 -17 -12 -37 -38 -74 -128 -282 -124 -286 3 -2 -2 -10 -11
-17 -8 -7 -15 -19 -15 -26 0 -8 -4 -22 -9 -32 -19 -35 -230 -562 -236 -586 -1
-6 -6 -22 -12 -36 -32 -81 -57 -156 -55 -162 1 -5 -2 -8 -6 -8 -5 0 -9 -6 -9
-12 -1 -7 -22 -71 -48 -143 -25 -71 -55 -155 -65 -185 -10 -30 -51 -147 -90
-260 -39 -113 -82 -236 -95 -275 -64 -190 -142 -413 -147 -421 -3 -5 -11 -28
-17 -51 -7 -24 -15 -43 -19 -43 -4 0 -36 41 -72 90 -36 50 -70 96 -75 103 -10
12 -79 115 -100 148 -5 9 -29 44 -52 77 -24 34 -43 65 -43 71 0 5 -4 11 -9 13
-4 2 -53 71 -107 153 -54 83 -101 152 -104 155 -3 3 -40 57 -82 120 -42 63
-118 175 -167 248 -50 74 -91 137 -91 142 0 5 -4 10 -8 12 -7 2 -129 177 -187
266 -13 20 -56 58 -98 86 -99 67 -175 79 -211 33 -12 -15 -23 -37 -25 -49 -5
-40 -3 -102 5 -133 7 -28 440 -686 456 -693 4 -2 8 -10 8 -17 0 -7 3 -15 8
-17 4 -1 54 -73 111 -158 58 -85 122 -178 143 -207 21 -29 38 -55 38 -59 0 -4
8 -17 19 -28 10 -12 51 -70 92 -131 41 -60 77 -111 82 -113 4 -2 7 -10 7 -17
0 -7 3 -15 8 -17 4 -1 31 -39 61 -83 30 -44 57 -82 60 -85 3 -3 38 -52 77
-110 123 -184 148 -286 110 -465 -7 -31 -132 -520 -156 -610 -20 -72 -26 -99
-33 -130 -2 -5 -6 -16 -10 -22 -5 -7 -6 -13 -3 -13 3 0 1 -11 -4 -25 -5 -14
-12 -36 -14 -48 -5 -24 -99 -381 -122 -463 -8 -28 -20 -51 -27 -51 -11 0 -76
-8 -137 -18 -50 -7 -176 -27 -200 -31 -14 -2 -43 -6 -65 -9 -22 -3 -51 -7 -65
-10 -31 -6 -154 -25 -195 -30 -16 -2 -46 -6 -65 -10 -59 -10 -80 -13 -215 -34
-71 -11 -149 -23 -173 -26 -24 -3 -53 -7 -65 -10 -12 -2 -40 -7 -62 -10 -35
-5 -89 -13 -200 -31 -16 -2 -41 -6 -55 -9 -14 -2 -45 -7 -70 -10 -25 -2 -56
-7 -70 -10 -14 -3 -45 -8 -70 -11 -25 -3 -52 -7 -60 -9 -13 -2 -38 -6 -135
-21 -16 -3 -42 -7 -57 -9 -55 -9 -84 -14 -123 -20 -23 -3 -50 -7 -61 -9 -12
-2 -45 -7 -75 -11 -30 -4 -72 -10 -94 -15 -22 -5 -43 -6 -47 -2 -3 4 -9 50
-13 102 -3 52 -8 120 -10 150 -2 30 -7 102 -10 160 -3 58 -8 137 -10 175 -18
294 -26 419 -30 520 -5 115 -17 339 -30 600 -6 102 -11 205 -20 400 -3 61 -7
151 -10 200 -3 50 -8 158 -11 240 -3 83 -8 173 -9 200 -2 28 -6 113 -9 190 -4
77 -9 169 -11 205 -5 73 -14 250 -21 385 -2 50 -6 119 -8 155 -3 36 -7 110
-10 166 -6 98 -10 159 -21 329 -3 44 -8 112 -10 150 -6 90 -14 202 -21 285 -3
36 -5 76 -5 89 1 14 -8 44 -19 67 -50 102 -196 101 -245 -2 -14 -30 -15 -62
-10 -262 13 -410 15 -632 20 -2037 4 -765 6 -1397 5 -1405 -1 -26 1 -84 4
-117 1 -18 -2 -33 -7 -33 -4 0 -5 -5 -2 -11 4 -5 9 -130 11 -277 4 -296 10
-546 19 -816 6 -151 10 -186 27 -223 52 -110 183 -164 308 -127 25 8 46 13 48
13 1 0 26 5 55 10 28 6 61 13 72 15 11 2 40 9 65 16 25 7 56 14 69 16 12 3 53
12 90 20 36 9 80 18 96 21 17 2 37 6 45 9 8 3 26 8 40 10 21 4 75 17 175 40
11 3 31 7 45 9 14 2 54 11 90 20 36 9 77 18 92 20 15 2 46 9 70 16 24 6 54 13
68 16 14 2 54 11 90 19 36 9 79 18 95 21 17 2 48 9 70 15 22 5 51 12 65 15 14
2 66 13 115 24 50 12 97 22 105 24 8 2 38 9 65 15 28 6 61 14 75 16 21 4 135
29 225 50 11 2 34 7 50 10 17 2 86 18 155 34 69 16 144 32 166 36 l42 6 -34
-133 c-18 -74 -36 -145 -38 -159 -3 -14 -7 -36 -11 -50 -7 -31 -24 -114 -32
-160 -9 -53 -6 -151 7 -213 20 -97 130 -193 192 -168 47 19 102 87 134 166 23
55 26 64 130 390 36 116 83 262 104 324 l37 115 54 13 c30 7 65 15 79 18 14 2
40 9 58 14 17 5 32 8 32 6 0 -3 11 0 26 5 14 6 39 12 57 15 108 19 156 47 179
103 26 67 -6 149 -71 180 -40 20 -42 20 -151 3 -145 -23 -149 -23 -146 -9 1 7
13 46 25 85 13 40 23 76 23 80 0 5 3 13 7 18 5 6 12 24 16 40 10 35 10 35 18
55 7 17 136 417 142 440 3 8 15 46 28 84 l23 70 141 -235 c77 -129 153 -256
168 -284 15 -27 33 -57 39 -65 6 -8 17 -26 25 -40 27 -47 114 -195 132 -225
10 -16 24 -41 32 -55 7 -14 76 -130 153 -258 258 -432 309 -515 356 -584 21
-31 38 -59 38 -63 0 -8 74 -120 83 -123 4 -2 7 -8 7 -13 0 -12 331 -503 341
-507 5 -2 9 -8 9 -13 0 -5 7 -17 15 -26 8 -10 70 -92 138 -183 128 -171 151
-201 178 -230 9 -10 21 -24 25 -33 9 -14 71 -90 109 -133 11 -12 40 -45 64
-73 24 -29 45 -50 47 -48 6 6 -35 146 -58 195 -12 26 -44 84 -70 130 -26 46
-48 85 -48 87 0 2 -27 49 -60 104 -33 56 -60 106 -60 111 0 6 -4 10 -10 10 -5
0 -10 5 -10 11 0 6 -17 41 -39 77 -21 37 -48 83 -59 102 -10 19 -69 122 -131
229 -61 106 -111 195 -111 196 0 2 -34 61 -76 131 -42 71 -80 138 -85 149 -5
11 -20 38 -34 60 -14 22 -28 47 -32 55 -4 8 -26 48 -50 88 -23 39 -39 72 -35
72 4 0 2 4 -4 8 -11 7 -183 304 -329 567 -15 28 -31 55 -35 60 -4 6 -24 42
-45 80 -21 39 -43 77 -49 85 -7 8 -25 40 -40 70 -16 30 -35 62 -42 70 -7 8
-12 17 -11 20 0 3 -18 37 -40 75 -53 92 -218 385 -256 455 -16 30 -33 60 -38
66 -23 28 -89 170 -95 202 -4 20 -10 42 -14 47 -9 13 -5 190 4 230 5 17 9 35
10 40 1 6 5 16 9 23 5 6 6 12 3 12 -2 0 0 15 5 33 6 17 12 39 14 47 1 8 31
128 65 265 34 137 64 258 66 267 2 10 6 26 8 36 14 58 39 159 41 172 2 8 4 17
6 20 1 3 3 10 4 15 2 6 4 12 5 15 1 3 3 15 6 28 2 12 25 105 50 205 25 100 48
191 50 202 2 11 20 83 40 160 19 77 37 150 40 161 2 12 18 75 35 140 16 66 32
126 34 134 2 8 8 38 15 65 6 28 14 57 17 65 3 8 7 22 8 30 1 8 17 69 34 135
17 66 34 129 36 140 9 36 83 309 110 400 35 121 33 112 50 180 20 80 19 101
-5 125 -26 26 -85 26 -128 0z"/>
<path d="M2959 4634 c-11 -13 -8 -177 5 -304 15 -150 18 -195 19 -290 0 -102
-8 -230 -18 -280 -22 -117 -42 -187 -72 -260 -19 -47 -38 -87 -42 -90 -3 -3
-12 -16 -18 -30 -6 -14 -19 -36 -30 -50 -27 -37 -173 -180 -184 -180 -5 0 -27
-11 -48 -24 -129 -82 -375 -95 -437 -22 -57 65 -73 158 -89 511 -3 66 -7 163
-10 215 -7 164 -15 283 -21 340 -3 30 -6 61 -7 69 -1 23 -58 51 -97 46 -66 -8
-72 -11 -101 -55 -50 -75 -60 -140 -60 -400 0 -143 5 -266 15 -345 3 -22 8
-62 11 -90 5 -44 16 -116 29 -180 2 -11 11 -47 20 -80 9 -33 19 -67 21 -75 21
-85 70 -174 128 -237 41 -45 164 -125 207 -136 14 -3 43 -10 65 -16 50 -14
193 -15 226 -3 13 5 27 10 32 10 23 3 93 27 98 35 3 5 9 8 13 7 4 -1 30 12 59
28 120 68 332 266 400 375 36 57 81 162 97 229 19 77 20 83 25 113 3 17 9 50
14 75 46 222 58 628 26 846 -14 100 -80 197 -153 225 -79 31 -111 37 -123 23z"/>
</g>
</svg>
