<?xml version="1.0" encoding="UTF-8"?>
<svg id="Layer_1" data-name="Layer 1" xmlns="http://www.w3.org/2000/svg" xmlns:xlink="http://www.w3.org/1999/xlink" version="1.1" viewBox="0 0 268.9 134.6">
  <defs>
    <style>
      .cls-1 {
        clip-path: url(#clippath);
      }

      .cls-2 {
        fill: none;
      }

      .cls-2, .cls-3 {
        stroke-width: 0px;
      }

      .cls-3 {
        fill: #ea1f4d;
      }
    </style>
    <clipPath id="clippath">
      <rect class="cls-2" x="4.6" y="32.4" width="259.7" height="69.7" transform="translate(-12.8 37.1) rotate(-15)"/>
    </clipPath>
  </defs>
  <g id="Group_33" data-name="Group 33">
    <g class="cls-1">
      <g id="Group_32" data-name="Group 32">
        <path id="Path_622" data-name="Path 622" class="cls-3" d="M240,18.8c-4.4,7.8-9.4,15.2-15.1,22.1-.7.9-1.5,1.8-2.2,2.6-.3.4-.7.8-1,1.2l-.5.6s-.8.9-.3.4c-1.5,1.6-2.9,3.2-4.5,4.8-3.1,3.2-6.4,6.3-9.8,9.3-3.4,3-6.9,5.8-10.5,8.5-.9.7-1.9,1.4-2.8,2-.4.3-.8.6-1.3.9l-.6.4c.7-.5-.3.2-.4.3-1.8,1.2-3.7,2.4-5.5,3.6-7.8,4.8-15.9,8.9-24.3,12.4l-.7.3c-.1,0-.9.3-.4.1.6-.2-.6.2-.5.2l-.7.3c-1.1.4-2.2.8-3.3,1.2-2.1.8-4.3,1.5-6.4,2.1-4.3,1.3-8.7,2.5-13.1,3.5-2.2.5-4.4.9-6.5,1.3-.9.2,0,0,0,0h-.7c-.6.2-1.1.3-1.7.4-1.1.2-2.2.3-3.4.5-4.4.6-8.8.9-13.2,1.1-4.4.2-8.8.2-13.2,0-.7,0,.8,0,0,0h-.9c-.5,0-1,0-1.5-.1-1.1,0-2.3-.1-3.4-.2-2.2-.2-4.4-.4-6.6-.6-4.4-.5-8.7-1.2-13-2.1-2.2-.4-4.3-.9-6.4-1.4-.5-.1-1-.2-1.5-.4,0,0-1.2-.3-.5-.1.5.1-.2,0-.4,0-1.1-.3-2.2-.6-3.3-.9-8.4-2.4-16.6-5.5-24.5-9.2-1-.5-1.9-.9-2.9-1.4-.4-.2-.9-.4-1.3-.7-.2-.1-.4-.2-.7-.3.8.4-.2-.1-.4-.2-2-1-3.9-2.1-5.9-3.3-3.7-2.2-7.4-4.5-10.9-7-1.7-1.2-3.4-2.5-5.1-3.8-2-1.3-4.7-1.1-6.5.4-1.3,1.1-1.6,3-.5,4.4.2.3.5.5.7.7,14.3,11,30.4,19.4,47.5,25,17.6,5.8,36,8.7,54.6,8.6,18.6,0,37-3.3,54.4-9.6,17.8-6.4,34.5-15.7,49.3-27.5,14.5-11.5,27-25.5,36.8-41.2,1.2-1.9,2.3-3.8,3.4-5.8.9-1.5.4-3.5-1.1-4.4-.2-.1-.5-.3-.8-.3-1.9-.7-5.1-.4-6.2,1.7"/>
        <path id="Path_623" data-name="Path 623" class="cls-3" d="M244.8,46.1l7.3-25.2,2.1-7.1c.1-.6,0-1.1-.2-1.7-.4-.6-1-1.1-1.8-1.2-.7-.2-1.4-.2-2.1,0-1,.2-1.9.6-2.7,1.2l-19.8,13.1-5.6,3.7c-.9.6-1.5,1.5-1.8,2.5-.2.8,0,1.7.7,2.3.8.6,1.8.8,2.8.7,1.2-.2,2.3-.7,3.3-1.4l19.8-13.1,5.6-3.7-6.8-1.6-7.3,25.2-2.1,7.1c-.2.8,0,1.7.7,2.3.8.6,1.8.8,2.8.7,2.3-.2,4.3-1.7,5.1-3.9"/>
      </g>
    </g>
  </g>
</svg>