<svg xmlns="http://www.w3.org/2000/svg" xmlns:xlink="http://www.w3.org/1999/xlink" width="554.072" height="132.041" viewBox="0 0 554.072 132.041">
  <defs>
    <filter id="Path_633" x="0" y="0" width="554.072" height="132.041" filterUnits="userSpaceOnUse">
      <feOffset dy="3" input="SourceAlpha"/>
      <feGaussianBlur stdDeviation="3" result="blur"/>
      <feFlood flood-opacity="0.161"/>
      <feComposite operator="in" in2="blur"/>
      <feComposite in="SourceGraphic"/>
    </filter>
  </defs>
  <g transform="matrix(1, 0, 0, 1, 0, 0)" filter="url(#Path_633)">
    <path id="Path_633-2" data-name="Path 633" d="M37.622,3.015A3.646,3.646,0,0,1,39.59,4.476a3.329,3.329,0,0,1,.677,1.615,1.2,1.2,0,0,1-.246.861.634.634,0,0,1-.615.169,2.6,2.6,0,0,1-.784-.323,3.98,3.98,0,0,1-.784-.615q-8.767-.8-25.655,5.783a1.406,1.406,0,0,1-.984,1.123,2.3,2.3,0,0,1-1.63-.077,31.148,31.148,0,0,0-3.138,1.415,1.7,1.7,0,0,1-1.923-.261,2.841,2.841,0,0,1-1.292-1.784,1.677,1.677,0,0,1,.907-1.769q.831-.431,3.784-1.661A141.249,141.249,0,0,1,9.275-6.937q1.215-8.875,2.83-16.581t3.307-14.6Q17.1-45,18.272-49.065a44.318,44.318,0,0,1,1.477-4.645,2.367,2.367,0,0,1,1.292-1.23,2.822,2.822,0,0,1,1.769-.108,6.455,6.455,0,0,1,1.692.692,3.126,3.126,0,0,1,1.184,1.184,1.633,1.633,0,0,1,.154,1.4Q22.7-43.466,18.58-25.5A314.84,314.84,0,0,0,12.7,7.075Q25.071,2.522,33.038,2.522A15.452,15.452,0,0,1,37.622,3.015ZM95.946-43.066a4.685,4.685,0,0,1,1.846.415,3.737,3.737,0,0,1,1.261.877,4.725,4.725,0,0,1,.646.907,1.565,1.565,0,0,1,.215.661,1.294,1.294,0,0,1-.031.308.372.372,0,0,1-.077.169.2.2,0,0,1-.169.031q-.123-.015-.215-.031a1.723,1.723,0,0,1-.292-.092,2.932,2.932,0,0,0-.323-.108q-5.906-.954-20.918,1.938-6.952,21.41-6.952,33.284,0,5.137,1.169,6.46A14.384,14.384,0,0,0,76.089-2.63a42.83,42.83,0,0,0,3.338-6.106q1.292-2.953,2.415-5.783t1.184-2.953A1.539,1.539,0,0,1,84.287-18a2.843,2.843,0,0,1,1.569.477q.738.477.523,1.031-.031.062-.492,1.492t-1.092,3.153q-.631,1.723-1.538,3.984A38.281,38.281,0,0,1,81.2-3.522,38.226,38.226,0,0,1,78.75.338,11.963,11.963,0,0,1,75.9,3.2a5.447,5.447,0,0,1-3.122,1.077,8.507,8.507,0,0,1-1.569-.138,5.508,5.508,0,0,1-1.753-.754,5.473,5.473,0,0,1-1.723-1.677,10.354,10.354,0,0,1-1.23-3.092,19.258,19.258,0,0,1-.523-4.768,62.353,62.353,0,0,1,.338-6.306Q58.939.984,52.541.984A10.66,10.66,0,0,1,47.65-.138,10,10,0,0,1,44.1-3.045,14.36,14.36,0,0,1,42.036-6.86a11.953,11.953,0,0,1-.723-4.03,14.362,14.362,0,0,1,2.046-7.244,17.492,17.492,0,0,1,5.153-5.722,10.725,10.725,0,0,1,6.152-2.169,6.484,6.484,0,0,1,4.168,1.384,4.641,4.641,0,0,1,1.738,3.845,6.768,6.768,0,0,1-.969,3.276,13.153,13.153,0,0,1-2.507,3.184,13.306,13.306,0,0,1-3.63,2.4,9.884,9.884,0,0,1-4.122.954q-.308,0-1.538-.062a11.124,11.124,0,0,0-.215,2.123A9.184,9.184,0,0,0,47.8-7.06,12.379,12.379,0,0,0,48.5-4.876a4.707,4.707,0,0,0,1.415,1.907,3.407,3.407,0,0,0,2.2.754q6.583,0,16.427-23.317,1.323-5.814,2.984-11.1-6.337,1.477-10.859,2.892-.861.246-2.03-.923-1.046-1.107-.8-1.753a.586.586,0,0,1,.308-.277,58.515,58.515,0,0,1,5.629-1.707q4.184-1.123,9.044-2.169,1.354-3.968,2.123-5.814a2.3,2.3,0,0,1,1.123-1.123,2.514,2.514,0,0,1,1.538-.215,4.7,4.7,0,0,1,1.477.523A2.47,2.47,0,0,1,80.1-46.158a1.679,1.679,0,0,1,.092,1.369q-.031.154-1.015,2.953Q90.286-43.774,95.946-43.066ZM55.925-22.271a11.9,11.9,0,0,0-4.691,3.6A17.39,17.39,0,0,0,48.419-13.5h.031A6.671,6.671,0,0,0,52.2-15.012a11.308,11.308,0,0,0,3.292-3.63A3.743,3.743,0,0,0,55.925-22.271ZM84.41-53a2.51,2.51,0,0,1,2.338-1.815,4.047,4.047,0,0,1,2.953.984q1.261,1.077.892,2.153-2.061,6.152-2.369,7.69a1.953,1.953,0,0,1-1.63,1.615,3.177,3.177,0,0,1-2.584-.477,2.127,2.127,0,0,1-.984-2.246Q84.318-52.787,84.41-53Zm34.453,35.53a3.34,3.34,0,0,1,2.646.615q.984.646.554,1.107a1.026,1.026,0,0,1-.4.215,56.872,56.872,0,0,0-12.735,5.752q3.384,2.307,3.384,5.537a7.454,7.454,0,0,1-1.323,4.03,14.463,14.463,0,0,1-3.261,3.584,18.938,18.938,0,0,1-4.168,2.492,10.279,10.279,0,0,1-4.045.969,6.75,6.75,0,0,1-.938-.077,6.782,6.782,0,0,1-1.384-.4A5.668,5.668,0,0,1,95.7,5.522a4.28,4.28,0,0,1-1.138-1.507,5.2,5.2,0,0,1-.492-2.323q0-5.26,7.721-10.92-1.446-.615-2.261-1.015t-2.076-1.184A9.733,9.733,0,0,1,95.5-12.951a6.978,6.978,0,0,1-1.215-1.876,5.823,5.823,0,0,1-.523-2.461,9.125,9.125,0,0,1,1.892-5.306,15.186,15.186,0,0,1,4.66-4.307,10.348,10.348,0,0,1,5.26-1.646,8.553,8.553,0,0,1,5.076,1.461,4.492,4.492,0,0,1,2.061,3.83,3.175,3.175,0,0,1-.431,1.8,1.345,1.345,0,0,1-1.061.661,3.189,3.189,0,0,1-1.261-.2,2.873,2.873,0,0,1-1.092-.708,1.532,1.532,0,0,1-.492-.938,2.443,2.443,0,0,1,.077-.415,2.846,2.846,0,0,0,.077-.661.821.821,0,0,0-.185-.554,4.939,4.939,0,0,0-3.968,1.261,13.643,13.643,0,0,0-3.445,3.845,7.684,7.684,0,0,0-1.323,3.691,1.557,1.557,0,0,0,.138.646,1.8,1.8,0,0,0,.508.615q.369.308.677.523a7.064,7.064,0,0,0,.954.523q.646.308,1.031.477t1.23.523q.846.354,1.246.538a56.575,56.575,0,0,1,7.352-3.768A34.931,34.931,0,0,1,118.863-17.473ZM98.468,2.8a14.833,14.833,0,0,0,5.66-3.968q2.307-2.615,2.307-4.583a2.239,2.239,0,0,0-1.077-1.661Q97.945-2,98.468,2.8Zm75.212-20.118a3.385,3.385,0,0,1,2.769,1.015q.554.677-.062,1.015a.7.7,0,0,1-.308.123q-1.446.308-4.076.738t-4.707.861a33.83,33.83,0,0,0-3.584.923h-.031a27.231,27.231,0,0,1-5.614,9Q154.393.277,151.409.277a4.907,4.907,0,0,1-3.153-1.015A3.049,3.049,0,0,1,146.979-3.2q0-2.892,3.338-5.86a29.832,29.832,0,0,1,8.6-5.122A17.188,17.188,0,0,0,160.022-20,4.165,4.165,0,0,0,159.1-23.1a11.31,11.31,0,0,0-5.291,3.891,39.228,39.228,0,0,0-5.045,7.844q-2.338,4.66-4.491,10.059t-3.861,11q-1.707,5.6-2.907,10.182T135.628,27.9q-.092.708-.215,2.061a1.223,1.223,0,0,1-1.2,1.169,3.182,3.182,0,0,1-2.169-.508,1.921,1.921,0,0,1-1.061-1.646,111.964,111.964,0,0,1,1.031-14.32q1.031-7.921,2.492-14.627t3.015-12.7q1.553-6,2.584-9.367t1.246-3.768A2.156,2.156,0,0,1,143.4-27.07a3.431,3.431,0,0,1,2.553.907,1.837,1.837,0,0,1,.538,2.23,123.74,123.74,0,0,0-5.322,18.7,74.878,74.878,0,0,1,3.353-7.521,58.586,58.586,0,0,1,4.061-6.752,22.157,22.157,0,0,1,4.722-5.06,8.149,8.149,0,0,1,4.876-1.892,6.191,6.191,0,0,1,5.091,2.169,7.81,7.81,0,0,1,1.769,5.091,15.166,15.166,0,0,1-.338,3.076A35.875,35.875,0,0,1,173.681-17.319ZM151.471-3.845a12.808,12.808,0,0,0,2.307-2,22.1,22.1,0,0,0,2.492-3.168A15.372,15.372,0,0,0,151.471-3.845Zm39.683-13.2a1.573,1.573,0,0,1,1.23-.385,3.405,3.405,0,0,1,1.661.477q.8.461.584,1.015,0,.031-.385,1.031t-.846,2.138q-.461,1.138-1.2,2.845t-1.6,3.338q-.861,1.63-1.876,3.415A26.868,26.868,0,0,1,186.554.092a27.834,27.834,0,0,1-2.369,2.676A9.986,9.986,0,0,1,181.6,4.645a6.1,6.1,0,0,1-2.722.677,6.008,6.008,0,0,1-2.753-.631,6.541,6.541,0,0,1-2.076-1.615A10.217,10.217,0,0,1,172.589.708a15.926,15.926,0,0,1-.969-2.738,27.859,27.859,0,0,1-.554-2.892q-.215-1.538-.277-2.646t-.062-2.153a67.9,67.9,0,0,1,1.184-12.151,85.788,85.788,0,0,1,3.122-12.2A88.878,88.878,0,0,1,179.279-44.5a33.323,33.323,0,0,1,4.753-7.475q2.446-2.753,4.414-2.753a5.145,5.145,0,0,1,1.338.169,4.551,4.551,0,0,1,1.354.661,3.312,3.312,0,0,1,1.154,1.584,7.368,7.368,0,0,1,.431,2.692A31.052,31.052,0,0,1,191.4-41.19a55.284,55.284,0,0,1-3.307,8.782q-1.984,4.137-4.214,7.844a59.5,59.5,0,0,1-4.137,6.122,14,14,0,0,1-3.015,3.092,63.582,63.582,0,0,0-.615,8.244,26.415,26.415,0,0,0,.646,6.214q.646,2.646,1.63,3.261a6.754,6.754,0,0,0,2.8-1.923A23.366,23.366,0,0,0,184-3.122q1.307-2.015,2.63-4.46t2.2-4.353q.877-1.907,1.584-3.476T191.153-17.042Zm-2.769-32.515a51.406,51.406,0,0,0-6.168,12.166,104.231,104.231,0,0,0-4.384,15.427l.031-.031a.089.089,0,0,0,.031-.062q.523-.769,1.661-2.753t2.845-5.337q1.707-3.353,3.122-6.706a46.615,46.615,0,0,0,2.292-6.875A16.1,16.1,0,0,0,188.385-49.557Zm30.731,33.469q.4-.492,1.907.031,1.354.461,1.354,1.046a.38.38,0,0,1-.092.215,17.3,17.3,0,0,0-1.031,1.83q-.846,1.615-1.984,3.476t-2.553,3.8a14.865,14.865,0,0,1-3.138,3.215A5.629,5.629,0,0,1,210.256-1.2q-4.645,0-5.968-6.029-.738,1.169-.954,1.523t-1.092,1.661a20.425,20.425,0,0,1-1.4,1.907q-.523.6-1.492,1.63a10.711,10.711,0,0,1-1.723,1.538,10.006,10.006,0,0,1-1.753.923,5,5,0,0,1-1.923.415,4.925,4.925,0,0,1-4.414-2.6,12.83,12.83,0,0,1-1.584-6.752,19.888,19.888,0,0,1,1.307-6.814,27.841,27.841,0,0,1,3.307-6.445,19.4,19.4,0,0,1,4.63-4.737,8.78,8.78,0,0,1,5.06-1.876,9.127,9.127,0,0,1,3.415.677,7.194,7.194,0,0,1,2.938,2.215,5.547,5.547,0,0,1,1.246,3.6q0,1.077-1.354.892a3.3,3.3,0,0,1-2.153-1.077,1.615,1.615,0,0,1-.338-.554,1.979,1.979,0,0,0-.046-.231,1.886,1.886,0,0,0-.108-.338q-.062-.138-.154-.354a1.6,1.6,0,0,0-.231-.385,2.045,2.045,0,0,0-.338-.323,1.369,1.369,0,0,0-.492-.231,2.471,2.471,0,0,0-.631-.077,4.609,4.609,0,0,0-2.83,1.477,18.06,18.06,0,0,0-3.092,3.8,34.877,34.877,0,0,0-2.661,5.214,22.05,22.05,0,0,0-1.553,5.722,14.814,14.814,0,0,0,.231,5.291,10.219,10.219,0,0,0,2.553-2.307,33.562,33.562,0,0,0,2.753-3.738q1.307-2.046,2.415-3.922t1.876-3.322q.769-1.446.8-1.477a2.04,2.04,0,0,1,1.692-1.015,3.368,3.368,0,0,1,2.061.661,1.866,1.866,0,0,1,.892,1.492q0,.092-.231,1.692t-.385,3.23a15.974,15.974,0,0,0,.092,3.538,6.112,6.112,0,0,0,1.015,2.922,9.355,9.355,0,0,0,2.969-2.492,29.857,29.857,0,0,0,2.784-3.768q1.169-1.892,2.292-3.784A25.642,25.642,0,0,1,219.116-16.088Zm29.716-.677a1.6,1.6,0,0,1,1.307-.323,3.477,3.477,0,0,1,1.707.631q.8.554.523,1.138-.308.677-.569,1.2t-1.138,2.153q-.877,1.63-1.646,2.892t-1.938,2.907a24.452,24.452,0,0,1-2.215,2.738,12.074,12.074,0,0,1-2.292,1.876,4.456,4.456,0,0,1-2.353.784,4.49,4.49,0,0,1-2.738-.861,5.574,5.574,0,0,1-1.8-2.292,13.608,13.608,0,0,1-.923-2.984,17.527,17.527,0,0,1-.292-3.245,49.8,49.8,0,0,1,.861-8.367q-1.2.831-5.937,9.321T223.822.092a4.587,4.587,0,0,1-3.076,1.538,3.714,3.714,0,0,1-2.123-.6,3.663,3.663,0,0,1-1.338-1.646,10.05,10.05,0,0,1-.646-2.138,13.073,13.073,0,0,1-.2-2.353,41.238,41.238,0,0,1,1.892-11.151A56.045,56.045,0,0,1,222.1-26.363a2.752,2.752,0,0,1,2.338-1.169,3.893,3.893,0,0,1,2.646,1.031,1.607,1.607,0,0,1,.554,2.138,65.217,65.217,0,0,0-3.553,10.182q-2.261,7.752-2.015,8.767.185-.246,2.2-3.784t4.137-7.029a48.6,48.6,0,0,1,4.722-6.506q2.6-3.015,4.168-3.015a3.929,3.929,0,0,1,2.738.892,3.078,3.078,0,0,1,.984,2.4,52.451,52.451,0,0,1-.754,6.568,52.677,52.677,0,0,0-.754,7.614v.769q0,.338.031.646t.046.508a4.184,4.184,0,0,0,.062.446q.046.246.062.354a2.682,2.682,0,0,0,.077.323q.062.215.092.292t.123.323q.092.246.123.338a4.1,4.1,0,0,0,1.384-1.138A21.277,21.277,0,0,0,243.2-7.567q.831-1.2,1.846-2.8t1.677-2.753q.661-1.154,1.354-2.353T248.832-16.765Zm50.542-.338a3.142,3.142,0,0,1,2.707.215q1.046.492.861.923a.707.707,0,0,1-.246.246,77.432,77.432,0,0,0-13.074,8.429,136.743,136.743,0,0,1-4.507,14.843,83.721,83.721,0,0,1-5.445,12,30.991,30.991,0,0,1-6.214,8.075,9.982,9.982,0,0,1-6.537,2.922,4.787,4.787,0,0,1-4.184-2.138,8.526,8.526,0,0,1-1.477-4.968,17.033,17.033,0,0,1,1.938-7.26,41.529,41.529,0,0,1,5.245-8.106A95.027,95.027,0,0,1,275.717.108a106.9,106.9,0,0,1,8.429-7.429q1.323-5.537,2.184-10.274-.277.4-1.646,2.353t-2.276,3.215q-.907,1.261-2.522,3.2a29.589,29.589,0,0,1-2.907,3.092A16.331,16.331,0,0,1,274.1-3.691a6.055,6.055,0,0,1-2.938.892,3.71,3.71,0,0,1-3.215-1.415,6.179,6.179,0,0,1-1.031-3.722,24.1,24.1,0,0,1,1.969-7.829,52.812,52.812,0,0,1,3.322-7.4,2.526,2.526,0,0,1,3.045-1.292,3.408,3.408,0,0,1,2.153,1.507,1.4,1.4,0,0,1,.092,1.6,62.092,62.092,0,0,0-3.138,6.937q-2.276,5.552-2.276,7.921,1.969-1.077,5.491-5.552t6.675-8.921a52.183,52.183,0,0,1,3.83-5.06,2.161,2.161,0,0,1,1.63-.523,4.127,4.127,0,0,1,1.261.231,3.266,3.266,0,0,1,1.354.923,1.9,1.9,0,0,1,.492,1.677q-.769,5.476-2.061,11.5A54.809,54.809,0,0,1,299.373-17.1Zm-33.13,44.358q9.475-4.184,16.365-28.7a103.781,103.781,0,0,0-8.552,8.629,49.3,49.3,0,0,0-6.152,8.69,16.729,16.729,0,0,0-2.43,7.813Q265.474,26.578,266.243,27.255Zm55.648-43.928a2.879,2.879,0,0,1,2.43,0q1.261.431,1.23.984a.44.44,0,0,1-.185.338,13.961,13.961,0,0,1-3.83,2.061,14.629,14.629,0,0,1-5.337.984q-.431,0-.754-.015a2.672,2.672,0,0,1-.446-.046q-.123-.031-.215-.046a.967.967,0,0,0-.154-.015,15.718,15.718,0,0,1,.123,1.692,9.191,9.191,0,0,1-.277,2.353q-.308,1.307-.738,2.646a12.365,12.365,0,0,1-1.215,2.63,14.324,14.324,0,0,1-1.707,2.292A7.031,7.031,0,0,1,308.555.8a6.731,6.731,0,0,1-2.845.615,7.432,7.432,0,0,1-4.737-1.6,9.653,9.653,0,0,1-3.015-4.03,13.879,13.879,0,0,1-.984-5.26,19.594,19.594,0,0,1,.477-4.245,20.944,20.944,0,0,1,1.215-3.845,26.434,26.434,0,0,1,1.615-3.138,15.069,15.069,0,0,1,1.677-2.323,5.969,5.969,0,0,1,1.415-1.215,3.465,3.465,0,0,1,3.938.123,3.163,3.163,0,0,1,1.538,1.876.7.7,0,0,1-.185.708,17.23,17.23,0,0,0-3.891,6.137,21.158,21.158,0,0,0-1.861,8.321,10,10,0,0,0,.661,3.876q.661,1.569,1.615,1.569,2,0,3.722-3.276a14.636,14.636,0,0,0,1.723-6.906,4.867,4.867,0,0,0-.215-1.784q-2.769-1.907-2.769-3.261a1.13,1.13,0,0,1,.661-1.077,3.522,3.522,0,0,1,2.23.031,6.356,6.356,0,0,1,1.692.969,5.175,5.175,0,0,1,1.569,1.707,4.688,4.688,0,0,0,1.753.277,11.839,11.839,0,0,0,3.707-.569A11.492,11.492,0,0,0,321.891-16.673Zm27.932-.831a1.536,1.536,0,0,1,1.307-.338,3.212,3.212,0,0,1,1.615.646q.738.554.461,1.107,0,.031-.385.877t-.738,1.569q-.354.723-.969,1.953t-1.246,2.261q-.631,1.031-1.446,2.246a17.1,17.1,0,0,1-1.692,2.153,22.168,22.168,0,0,1-1.815,1.738,7.4,7.4,0,0,1-1.984,1.23,5.386,5.386,0,0,1-2.061.431,8.06,8.06,0,0,1-2.461-.354A4.57,4.57,0,0,1,336.61-3a10.54,10.54,0,0,1-1.154-1.277,4.949,4.949,0,0,1-.738-1.492q-.277-.877-.369-1.261T334.165-8q-.031.031-.323.615t-.492.954q-.2.369-.646,1.138t-.8,1.307q-.354.538-.892,1.292A15.892,15.892,0,0,1,330-1.4q-.477.538-1.077,1.123a7.716,7.716,0,0,1-1.169.954,5.7,5.7,0,0,1-1.23.6,3.869,3.869,0,0,1-1.277.231,4.707,4.707,0,0,1-2.8-.831,5.123,5.123,0,0,1-1.753-2.169,12.763,12.763,0,0,1-.846-2.692,14.563,14.563,0,0,1-.261-2.769,45.17,45.17,0,0,1,1.338-9.367,40.667,40.667,0,0,1,3-9.182,3.293,3.293,0,0,1,2.446-1.092,3.459,3.459,0,0,1,2.492.984,1.739,1.739,0,0,1,.477,2.2,45.2,45.2,0,0,0-3.384,11.643q-1.292,7.337-.708,9.244,1.692-1.415,4.26-6.045t4.168-8.167q1.6-3.538,2.092-4.891a1.737,1.737,0,0,1,1.646-1.2,3.061,3.061,0,0,1,2.2.661,1.439,1.439,0,0,1,.615,1.707,28.846,28.846,0,0,0-1.092,5.552,51.39,51.39,0,0,0-.446,5.891,10.781,10.781,0,0,0,.369,3.03,2.964,2.964,0,0,0,.954,1.646,7.4,7.4,0,0,0,3.107-2.446,28.9,28.9,0,0,0,3-4.168q1.246-2.123,2.446-4.291T349.822-17.5Zm19.872-10.213a6.955,6.955,0,0,1,2.323.354,3.55,3.55,0,0,1,1.461.861,4.233,4.233,0,0,1,.661.907,1.554,1.554,0,0,1,.2.646q0,1.292-1.415,1.292a3.281,3.281,0,0,1-2.4-1.015,10.33,10.33,0,0,0-4.707,3.307,37.123,37.123,0,0,0-4.63,6.352q-2.107,3.6-3.891,7.091t-2.984,6.075A27.217,27.217,0,0,1,352.96.892q.062.646-.984.984a3.341,3.341,0,0,1-2.892-.338A2.986,2.986,0,0,1,347.73-.4q-1.107-4.768.415-13.074a54.216,54.216,0,0,1,4.2-13.812,2.577,2.577,0,0,1,1.338-1.031,3.031,3.031,0,0,1,1.677-.108,5.555,5.555,0,0,1,1.538.584,2.407,2.407,0,0,1,1.031,1.092,1.709,1.709,0,0,1,.046,1.4,80.875,80.875,0,0,0-4.553,15.535q2.153-4.061,3.984-7a59.373,59.373,0,0,1,3.922-5.568,17.9,17.9,0,0,1,4.2-3.984A7.682,7.682,0,0,1,369.694-27.716Zm53.033,10.828a1.4,1.4,0,0,1,1.123-.246,3.071,3.071,0,0,1,1.369.538q.646.446.461.846a21.236,21.236,0,0,1-1.23,2.092q-1.015,1.6-3.03,4.168a60.517,60.517,0,0,1-4.245,4.86,23.656,23.656,0,0,1-5.122,3.968A10.715,10.715,0,0,1,406.578.984a10.945,10.945,0,0,1-4.891-1.154,10.074,10.074,0,0,1-3.553-2.892,14.118,14.118,0,0,1-2.061-3.8,11.953,11.953,0,0,1-.723-4.03,14.362,14.362,0,0,1,2.046-7.244,17.492,17.492,0,0,1,5.153-5.722,10.725,10.725,0,0,1,6.152-2.169,6.484,6.484,0,0,1,4.168,1.384,4.641,4.641,0,0,1,1.738,3.845,6.768,6.768,0,0,1-.969,3.276,13.153,13.153,0,0,1-2.507,3.184,13.306,13.306,0,0,1-3.63,2.4,9.884,9.884,0,0,1-4.122.954q-.308,0-1.538-.062a11.124,11.124,0,0,0-.215,2.123,9.184,9.184,0,0,0,.215,1.861,12.379,12.379,0,0,0,.692,2.184,4.707,4.707,0,0,0,1.415,1.907,3.407,3.407,0,0,0,2.2.754,5.647,5.647,0,0,0,1.984-.4,11.719,11.719,0,0,0,2.092-1.046,22.193,22.193,0,0,0,2.169-1.569q1.138-.923,2.138-1.907t2.046-2.123q1.046-1.138,1.861-2.123t1.63-2q.815-1.015,1.307-1.677t.907-1.23Q422.7-16.857,422.728-16.888Zm-12.766-5.383a11.9,11.9,0,0,0-4.691,3.6,17.39,17.39,0,0,0-2.815,5.168h.031a6.671,6.671,0,0,0,3.753-1.507,11.308,11.308,0,0,0,3.292-3.63A3.743,3.743,0,0,0,409.961-22.271Zm39.006,4.8a3,3,0,0,1,2.584.308q1.23.584.984,1.2a.79.79,0,0,1-.4.369,16.945,16.945,0,0,1-7.752,1.938,19.077,19.077,0,0,1-4.522-.554,53.251,53.251,0,0,1-3.322,8.075A27.022,27.022,0,0,1,432.171.185q-2.43,2.553-4.645,2.553a6.786,6.786,0,0,1-2.892-.6A5.488,5.488,0,0,1,422.543.492a13.212,13.212,0,0,1-1.384-2.246,10.58,10.58,0,0,1-.861-2.615q-.277-1.415-.4-2.538a20.185,20.185,0,0,1-.123-2.2,65.893,65.893,0,0,1,.708-8.429q.708-5.229,1.569-6.891a2.19,2.19,0,0,1,1.584-1.107,3.963,3.963,0,0,1,2.107.138,3.366,3.366,0,0,1,1.646,1.215,1.961,1.961,0,0,1,.292,1.876A43.579,43.579,0,0,0,426-14.566a55.594,55.594,0,0,0-.631,6.814q0,5.076,1.446,7.106a21.515,21.515,0,0,0,5.291-6.491,44.213,44.213,0,0,0,3.691-8.8,7.6,7.6,0,0,1-3.784-6.614,13.72,13.72,0,0,1,.477-3.522,8.673,8.673,0,0,1,1.584-3.2,3.237,3.237,0,0,1,2.584-1.4,4.469,4.469,0,0,1,3.707,1.738,7.487,7.487,0,0,1,1.369,4.753,28.584,28.584,0,0,1-1.077,7.229,11.985,11.985,0,0,0,3.2.4A13.787,13.787,0,0,0,448.967-17.473Zm-12.151-2.461a21.042,21.042,0,0,0,.523-6.214Q435.863-22.271,436.816-19.934Zm37.16,3.045a1.4,1.4,0,0,1,1.123-.246,3.071,3.071,0,0,1,1.369.538q.646.446.461.846a21.236,21.236,0,0,1-1.23,2.092q-1.015,1.6-3.03,4.168a60.517,60.517,0,0,1-4.245,4.86A23.656,23.656,0,0,1,463.3-.661,10.715,10.715,0,0,1,457.827.984a10.945,10.945,0,0,1-4.891-1.154,10.074,10.074,0,0,1-3.553-2.892,14.118,14.118,0,0,1-2.061-3.8,11.953,11.953,0,0,1-.723-4.03,14.362,14.362,0,0,1,2.046-7.244,17.492,17.492,0,0,1,5.153-5.722,10.725,10.725,0,0,1,6.152-2.169,6.484,6.484,0,0,1,4.168,1.384,4.641,4.641,0,0,1,1.738,3.845,6.768,6.768,0,0,1-.969,3.276,13.153,13.153,0,0,1-2.507,3.184,13.306,13.306,0,0,1-3.63,2.4,9.884,9.884,0,0,1-4.122.954q-.308,0-1.538-.062a11.124,11.124,0,0,0-.215,2.123,9.184,9.184,0,0,0,.215,1.861,12.379,12.379,0,0,0,.692,2.184A4.707,4.707,0,0,0,455.2-2.969a3.407,3.407,0,0,0,2.2.754,5.647,5.647,0,0,0,1.984-.4,11.719,11.719,0,0,0,2.092-1.046,22.193,22.193,0,0,0,2.169-1.569q1.138-.923,2.138-1.907t2.046-2.123q1.046-1.138,1.861-2.123t1.63-2q.815-1.015,1.307-1.677t.907-1.23Q473.946-16.857,473.977-16.888ZM461.21-22.271a11.9,11.9,0,0,0-4.691,3.6A17.39,17.39,0,0,0,453.7-13.5h.031a6.671,6.671,0,0,0,3.753-1.507,11.308,11.308,0,0,0,3.292-3.63A3.743,3.743,0,0,0,461.21-22.271Zm42.205,5.506a1.6,1.6,0,0,1,1.307-.323,3.477,3.477,0,0,1,1.707.631q.8.554.523,1.138-.308.677-.569,1.2t-1.138,2.153q-.877,1.63-1.646,2.892t-1.938,2.907a24.452,24.452,0,0,1-2.215,2.738,12.074,12.074,0,0,1-2.292,1.876,4.456,4.456,0,0,1-2.353.784,4.49,4.49,0,0,1-2.738-.861,5.574,5.574,0,0,1-1.8-2.292,13.608,13.608,0,0,1-.923-2.984,17.527,17.527,0,0,1-.292-3.245,49.8,49.8,0,0,1,.861-8.367q-1.2.831-5.937,9.321T478.406.092A4.587,4.587,0,0,1,475.33,1.63a3.714,3.714,0,0,1-2.123-.6,3.663,3.663,0,0,1-1.338-1.646,10.05,10.05,0,0,1-.646-2.138,13.073,13.073,0,0,1-.2-2.353,41.238,41.238,0,0,1,1.892-11.151,56.045,56.045,0,0,1,3.768-10.105,2.752,2.752,0,0,1,2.338-1.169,3.893,3.893,0,0,1,2.646,1.031,1.607,1.607,0,0,1,.554,2.138,65.217,65.217,0,0,0-3.553,10.182q-2.261,7.752-2.015,8.767.185-.246,2.2-3.784t4.137-7.029a48.6,48.6,0,0,1,4.722-6.506q2.6-3.015,4.168-3.015a3.929,3.929,0,0,1,2.738.892,3.078,3.078,0,0,1,.984,2.4,52.451,52.451,0,0,1-.754,6.568,52.677,52.677,0,0,0-.754,7.614v.769q0,.338.031.646t.046.508a4.184,4.184,0,0,0,.062.446q.046.246.062.354a2.682,2.682,0,0,0,.077.323q.062.215.092.292t.123.323q.092.246.123.338a4.1,4.1,0,0,0,1.384-1.138,21.277,21.277,0,0,0,1.692-2.153q.831-1.2,1.846-2.8t1.677-2.753q.661-1.154,1.354-2.353T503.416-16.765Zm28.116-26.3a4.569,4.569,0,0,1,1.83.415,3.765,3.765,0,0,1,1.246.877,4.725,4.725,0,0,1,.646.907,1.565,1.565,0,0,1,.215.661,1.294,1.294,0,0,1-.031.308.372.372,0,0,1-.077.169.175.175,0,0,1-.154.031l-.2-.031a1.723,1.723,0,0,1-.292-.092,2.932,2.932,0,0,0-.323-.108q-5.906-.954-20.918,1.938-6.952,21.41-6.952,33.284,0,5.137,1.169,6.46a14.384,14.384,0,0,0,3.984-4.384,42.83,42.83,0,0,0,3.338-6.106q1.292-2.953,2.415-5.783t1.184-2.953A1.539,1.539,0,0,1,519.873-18a2.843,2.843,0,0,1,1.569.477q.738.477.523,1.031-.031.062-.492,1.492t-1.092,3.153q-.631,1.723-1.538,3.984a38.281,38.281,0,0,1-2.061,4.337A38.226,38.226,0,0,1,514.336.338,11.963,11.963,0,0,1,511.49,3.2a5.447,5.447,0,0,1-3.122,1.077,8.507,8.507,0,0,1-1.569-.138,5.508,5.508,0,0,1-1.753-.754,5.473,5.473,0,0,1-1.723-1.677,10.354,10.354,0,0,1-1.23-3.092,19.258,19.258,0,0,1-.523-4.768q0-12.582,5.537-30.485-6.337,1.477-10.859,2.892-.861.246-2.03-.923-1.046-1.107-.8-1.753a.586.586,0,0,1,.308-.277q1.477-.584,5.629-1.707t9.013-2.169q1.354-3.968,2.123-5.814a2.3,2.3,0,0,1,1.123-1.123,2.514,2.514,0,0,1,1.538-.215,4.882,4.882,0,0,1,1.492.523,2.451,2.451,0,0,1,1.046,1.046,1.679,1.679,0,0,1,.092,1.369q-.031.123-.169.508t-.385,1.077q-.246.692-.492,1.369Q525.841-43.774,531.532-43.066Z" transform="translate(8.71 89.09) rotate(-3)" fill="#fff"/>
  </g>
</svg>
