<svg id="Component_3_1" data-name="Component 3 – 1" xmlns="http://www.w3.org/2000/svg" xmlns:xlink="http://www.w3.org/1999/xlink" width="242.535" height="192.701" viewBox="0 0 242.535 192.701">
  <defs>
    <clipPath id="clip-path">
      <rect id="Rectangle_74" data-name="Rectangle 74" width="242.535" height="192.701" fill="none"/>
    </clipPath>
  </defs>
  <g id="Group_43" data-name="Group 43" clip-path="url(#clip-path)">
    <path id="Path_637" data-name="Path 637" d="M356.6,3.069A3.034,3.034,0,0,1,357.474.89,2.819,2.819,0,0,1,359.567,0a2.864,2.864,0,0,1,2.109.89,3.062,3.062,0,0,1,.862,2.178,3,3,0,0,1-.862,2.16,2.836,2.836,0,0,1-2.109.907,2.8,2.8,0,0,1-2.093-.906,2.97,2.97,0,0,1-.878-2.159m.637,0a2.42,2.42,0,0,0,.67,1.756,2.185,2.185,0,0,0,1.662.7,2.219,2.219,0,0,0,1.678-.7,2.447,2.447,0,0,0,.658-1.758,2.469,2.469,0,0,0-.658-1.775A2.247,2.247,0,0,0,359.565.6a2.21,2.21,0,0,0-1.662.689,2.446,2.446,0,0,0-.67,1.776m1.213-1.877h1.31q1.189-.008,1.19,1.068a1.062,1.062,0,0,1-.252.765,1.08,1.08,0,0,1-.632.277l.993,1.473h-.687l-1-1.456h-.337V4.775h-.587Zm.587,1.573h.41a2.024,2.024,0,0,0,.642-.075.42.42,0,0,0,.273-.432.425.425,0,0,0-.241-.419,1.445,1.445,0,0,0-.542-.093h-.542Z" transform="translate(-237.845)" fill="#fff"/>
    <path id="Path_638" data-name="Path 638" d="M95.462,150.46c-1.83.3-3.782.62-5.817.945,3-9.143,5.993-18.282,7.566-23.3,17.755,29.107,33.007,58.768,55.083,83.927a23.342,23.342,0,0,0-3.108-8.294c-15.678-27.487-31.481-54.9-46.954-82.505a14.771,14.771,0,0,1-1.434-9.87c6.086-24.144,10.744-44.314,17.079-68.4.69-2.623,2.834-9.221,3.257-11.912.42-2.676-3.864-2.79-5.11-.168C104.31,55.533,98.348,76.213,89.559,100.74c-1.538-2.071-2.6-3.393-3.548-4.8C78.3,84.509,70.642,73.042,62.9,61.631c-1.28-1.886-2.586-4.111-4.452-5.134-1.609-.882-4.85-3.334-6.1-.328a6.493,6.493,0,0,0,.555,5.692Q68.07,84.566,83.682,106.975a12.716,12.716,0,0,1,2.007,10.951c-1.785,7.805-5.789,22.364-9.244,35.528-8.837,1.349-17.94,2.71-25.257,3.865-10.723,1.62-25.071,3.828-36.993,5.708C11.282,121.85,10.4,80.452,7.233,39.253A3.624,3.624,0,0,0,0,39.674c.383,10.864.495,21.8.585,32.738.435,33.351-.383,66.615,1.044,99.98a6.471,6.471,0,0,0,7.765,4.845c7.216-1.671,14.518-3.288,21.8-4.9,13.133-2.926,28.286-6.215,42.813-9.43-1.218,4.845-2.234,9.13-2.862,12.311a16.4,16.4,0,0,0,.317,7.753,6.009,6.009,0,0,0,4.177,3.3c1.012.159,2.808-1.814,3.512-3.2a49.14,49.14,0,0,0,2.617-7.492c1.058-3.354,2.927-9.079,5.038-15.518,3.464-.78,6.841-1.547,10.088-2.3a3.719,3.719,0,0,0-1.436-7.293" transform="translate(0 -19.33)" fill="#fff"/>
    <path id="Path_639" data-name="Path 639" d="M102.317,262.291a43.746,43.746,0,0,0,8.472-7.968c5.3-6.333,6.407-27.892,4.721-34.936-.61-2.552-1.647-5.2-7.128-5.959-.467,2.755.084,6.719.347,9.06,3.855,34.225-19.838,34.774-22.017,31.185a12.027,12.027,0,0,1-1.235-2.829c-1.032-3.462-1.135-21.65-1.754-25.164-.2-1.15.264-2.593-2.095-2.848-2.561-.277-3.108,1.227-3.835,2.434a3.488,3.488,0,0,0-.466,1.139c-1.286,6.963-.66,28.337,5.013,34.407,5.242,5.609,13.112,6.259,19.977,1.48" transform="translate(-51.201 -142.354)" fill="#fff"/>
    <path id="Path_640" data-name="Path 640" d="M389.029,214.619a3.9,3.9,0,0,0-3.572-2.193c-2.487,0-4,1.7-4,5.087s1.515,5.064,4,5.064a3.893,3.893,0,0,0,3.482-2.012l2.419,1.764a6.552,6.552,0,0,1-5.9,3.278c-4.183,0-7.3-2.781-7.3-8.117,0-5.291,3.1-8.117,7.325-8.117a6.266,6.266,0,0,1,5.946,3.459Z" transform="translate(-252.224 -139.65)" fill="#fff"/>
    <path id="Path_641" data-name="Path 641" d="M433.768,210.257l5.811,15.645h-3.5l-1.04-2.962H429.02L428,225.9h-3.482l5.742-15.645Zm-3.753,9.79h4.024L432,214.236Z" transform="translate(-283.15 -140.239)" fill="#fff"/>
    <path id="Path_642" data-name="Path 642" d="M483.641,210.256v3.052h-4.477V225.9h-3.3V213.308h-4.5v-3.052Z" transform="translate(-314.394 -140.238)" fill="#fff"/>
    <path id="Path_643" data-name="Path 643" d="M528.858,210.256v3.052h-7.009v3.143h4.974v2.939h-4.974v3.459h7.167V225.9H518.547V210.256Z" transform="translate(-345.865 -140.238)" fill="#fff"/>
    <path id="Path_644" data-name="Path 644" d="M568.556,210.257c3.369,0,5.63,1.65,5.63,4.929a4.434,4.434,0,0,1-3.007,4.522l3.776,6.195h-3.73l-3.369-5.788H565.3V225.9H562V210.257Zm-3.279,7.054h3.346c1.424,0,2.419-.633,2.419-2.057,0-1.4-1-2.012-2.419-2.012h-3.346Z" transform="translate(-374.846 -140.239)" fill="#fff"/>
    <rect id="Rectangle_73" data-name="Rectangle 73" width="3.323" height="15.646" transform="translate(203.498 70.018)" fill="#fff"/>
    <path id="Path_645" data-name="Path 645" d="M638.619,210.256l6.014,9.586v-9.586h3.279V225.9H644.9l-6.286-9.518V225.9h-3.3V210.256Z" transform="translate(-423.749 -140.238)" fill="#fff"/>
    <path id="Path_646" data-name="Path 646" d="M699.235,216.7v2.1c0,4.07-2.351,6.805-6.511,6.805-4.228,0-7.3-2.781-7.3-8.072,0-5.313,3.1-8.162,7.325-8.162a6.265,6.265,0,0,1,5.946,3.459l-2.4,1.786a3.9,3.9,0,0,0-3.572-2.193c-2.487,0-4,1.7-4,5.064,0,3.391,1.537,5.087,4,5.087a3.05,3.05,0,0,0,3.3-3.052H693.2V216.7Z" transform="translate(-457.167 -139.65)" fill="#fff"/>
    <path id="Path_647" data-name="Path 647" d="M385.062,275.325a2.448,2.448,0,0,0-2.239-1.609,1.58,1.58,0,0,0-1.679,1.726c0,.793.35,1.936,2.379,4.012a36.825,36.825,0,0,0,2.892,2.682,6.706,6.706,0,0,0,.443-2.355h3.125a11.132,11.132,0,0,1-.933,4.408,21.931,21.931,0,0,0,2.519,1.609l-1.632,2.915a32.042,32.042,0,0,1-2.8-1.912,7.094,7.094,0,0,1-4.828,1.7c-3.592,0-5.854-2.006-5.854-5.318a4.949,4.949,0,0,1,2.658-4.595,6.761,6.761,0,0,1-1.026-3.429c0-2.635,1.772-4.361,4.688-4.361a4.717,4.717,0,0,1,4.572,2.635ZM384.6,284.7c-.979-.863-1.959-1.8-2.892-2.8-.42-.443-.793-.863-1.143-1.283a2.819,2.819,0,0,0-1.1,2.286,2.611,2.611,0,0,0,2.752,2.705,3.7,3.7,0,0,0,2.379-.909" transform="translate(-251.091 -180.62)" fill="#fff"/>
    <path id="Path_648" data-name="Path 648" d="M464.9,274.581v3.149h-7.23v3.242H462.8V284h-5.131v3.568h7.394v3.149h-10.8V274.581Z" transform="translate(-302.988 -183.142)" fill="#fff"/>
    <path id="Path_649" data-name="Path 649" d="M497.937,274.581l4.082,11.8,4.081-11.8h3.685l-5.947,16.139H500.2l-5.947-16.139Z" transform="translate(-329.66 -183.142)" fill="#fff"/>
    <path id="Path_650" data-name="Path 650" d="M561.4,274.581v3.149h-7.23v3.242h5.131V284h-5.131v3.568h7.394v3.149h-10.8V274.581Z" transform="translate(-367.356 -183.142)" fill="#fff"/>
    <path id="Path_651" data-name="Path 651" d="M598.925,274.581l6.2,9.889v-9.889h3.382v16.139h-3.1l-6.484-9.819v9.819H595.52V274.581Z" transform="translate(-397.204 -183.142)" fill="#fff"/>
    <path id="Path_652" data-name="Path 652" d="M657.138,274.581v3.149H652.52v12.991h-3.405V277.73h-4.642v-3.149Z" transform="translate(-429.855 -183.142)" fill="#fff"/>
    <path id="Path_653" data-name="Path 653" d="M689.363,285.589a6.3,6.3,0,0,0,4.781,2.029c2.1,0,3.219-.793,3.219-2.076,0-1.026-.7-1.376-1.563-1.656-1.306-.42-3.149-.7-4.8-1.376-1.726-.7-3.009-1.679-3.009-3.778,0-2.729,2.146-4.641,6.041-4.641a7.679,7.679,0,0,1,6.2,2.566l-2.379,2.076a5.36,5.36,0,0,0-3.988-1.609c-1.586,0-2.612.513-2.612,1.47,0,.793.676,1.12,1.306,1.353,1.329.49,3.289.7,4.921,1.329,1.749.676,3.172,1.843,3.172,4.245,0,3.335-2.776,5.061-6.717,5.061-3.405,0-5.784-1.282-7.091-2.915Z" transform="translate(-458.116 -182.815)" fill="#fff"/>
  </g>
</svg>
