<svg xmlns="http://www.w3.org/2000/svg" width="143.01" height="140.585" viewBox="0 0 143.01 140.585"><g transform="translate(-592.243 -332.049)"><path d="M219.495,163.634c-1.371-1.725-3.18-3.261-4.025-5.214a74.528,74.528,0,0,1-4.894-13.652c-2.754-12.819-5.027-25.742-7.474-38.627-.358-1.886-.622-3.789-1.056-6.469-1.719,1.78-2.874,2.842-3.875,4.033q-19.071,22.674-38.1,45.38c-.231.275-.453.558-.686.832-4.451,5.221-9.913,4.765-12.787-1.416a179.478,179.478,0,0,1-8.2-19.924c-7.012-21.537-13.586-43.216-17.943-65.484a112.231,112.231,0,0,1-1.767-12.259c-.328-3.961.975-6.084,3.331-6.516,2.389-.439,4.008,1.178,4.948,5.209,1.591,6.826,3.025,13.69,4.644,20.509,4.617,19.445,10.942,38.362,17.82,57.1.978,2.664,2.215,5.233,3.554,8.364,1.194-1.1,1.985-1.718,2.645-2.454,13.547-15.108,26.973-30.327,40.7-45.272a12.545,12.545,0,0,0,3.522-10.553c-1.157-14.321-1.9-28.676-2.725-43.023a37.616,37.616,0,0,1,.239-6.982c.294-2.257,1.317-4.282,4.057-4.164,2.509.108,3.133,2.093,3.382,4.154.367,3.032.655,6.074.948,9.114,1.037,10.731,2.048,21.464,3.111,32.193.136,1.369.518,2.715.93,4.8,16.641-17.377,32.339-34.735,50.689-49.265l1.168.889c-1.26,2.218-2.416,4.5-3.8,6.644C246.2,49.612,232.3,65.874,217.715,81.493c-5.04,5.4-6.826,10.425-5.3,17.663,2.854,13.53,4.939,27.226,7.2,40.877.851,5.131,1.458,10.314,1.883,15.5a49.132,49.132,0,0,1-.469,7.421l-1.538.683" transform="translate(473.615 309)" fill="#ac8a56"/><path d="M210.863,51.66c5.045,1.036,6,4.658,6.561,8.146,1.55,9.628.837,19.082-4.04,27.74a53.12,53.12,0,0,1-7.8,10.893c-6.318,6.534-13.561,5.644-18.385-2.023-5.221-8.3-6.1-17.5-4.919-27.017a6.255,6.255,0,0,1,.428-1.557c.669-1.649,1.173-3.705,3.53-3.327,2.17.349,1.741,2.321,1.928,3.893.57,4.8.971,9.65,1.92,14.383a15.85,15.85,0,0,0,5.506,9.786c2.871-.482,3.939-2.978,5.11-5.036,4.561-8.013,8.234-16.372,9.017-25.737.267-3.2.712-6.377,1.142-10.143" transform="translate(439.759 293.67)" fill="#ac8a56"/></g></svg>